<mxfile host="app.diagrams.net" modified="2021-04-23T07:37:04.372Z" agent="5.0 (Windows NT 10.0; Win64; x64) AppleWebKit/537.36 (KHTML, like Gecko) Chrome/89.0.4389.128 Safari/537.36" etag="cBPe7s7Vs4WbE1R_Tqlz" version="14.6.1" type="github">
  <diagram name="Page-1" id="e7e014a7-5840-1c2e-5031-d8a46d1fe8dd">
    <mxGraphModel dx="1422" dy="794" grid="1" gridSize="10" guides="1" tooltips="1" connect="1" arrows="1" fold="1" page="1" pageScale="1" pageWidth="1169" pageHeight="827" background="#ffffff" math="0" shadow="0">
      <root>
        <mxCell id="0" />
        <mxCell id="1" parent="0" />
        <mxCell id="2" value="/api" style="swimlane;whiteSpace=wrap;fontSize=14;" parent="1" vertex="1">
          <mxGeometry x="40" y="40" width="120" height="760" as="geometry" />
        </mxCell>
        <mxCell id="xLXLxWbwwWDMzjeiRdD_-43" value="errorHandler" style="text;html=1;align=center;verticalAlign=middle;resizable=0;points=[];autosize=1;strokeColor=none;fontSize=14;" vertex="1" parent="2">
          <mxGeometry x="15" y="450" width="90" height="20" as="geometry" />
        </mxCell>
        <mxCell id="xLXLxWbwwWDMzjeiRdD_-102" value="&lt;div&gt;const ApiError = require(&#39;../error/ApiError&#39;)&lt;/div&gt;&lt;div&gt;&lt;br&gt;&lt;/div&gt;&lt;div&gt;module.exports = function (err, req, res) {&lt;/div&gt;&lt;div&gt;&lt;span&gt;	&lt;/span&gt;if (err instanceof ApiError) {&lt;/div&gt;&lt;div&gt;&lt;span&gt;		&lt;/span&gt;return res.status(err.status).json({ message: err.message })&lt;/div&gt;&lt;div&gt;&lt;span&gt;	&lt;/span&gt;}&lt;/div&gt;&lt;div&gt;&lt;span&gt;	&lt;/span&gt;return res.status(500).json({ message: &#39;Непредвиденная ошибка&#39; })&lt;/div&gt;&lt;div&gt;}&lt;/div&gt;" style="text;html=1;align=left;verticalAlign=middle;resizable=0;points=[];autosize=1;strokeColor=none;fontSize=9;rotation=-90;" vertex="1" parent="2">
          <mxGeometry x="-85" y="560" width="290" height="90" as="geometry" />
        </mxCell>
        <mxCell id="3" value="/user" style="swimlane;whiteSpace=wrap;startSize=23;fontSize=14;" parent="1" vertex="1">
          <mxGeometry x="160" y="40" width="80" height="200" as="geometry" />
        </mxCell>
        <mxCell id="xLXLxWbwwWDMzjeiRdD_-41" value="POST &#39;/registration&#39;" style="swimlane;whiteSpace=wrap;fontSize=14;" vertex="1" parent="1">
          <mxGeometry x="240" y="40" width="280" height="60" as="geometry" />
        </mxCell>
        <mxCell id="xLXLxWbwwWDMzjeiRdD_-44" value="/type" style="swimlane;whiteSpace=wrap;fontSize=14;" vertex="1" parent="1">
          <mxGeometry x="160" y="480" width="80" height="160" as="geometry" />
        </mxCell>
        <mxCell id="xLXLxWbwwWDMzjeiRdD_-45" value="/brand" style="swimlane;whiteSpace=wrap;fontSize=14;" vertex="1" parent="1">
          <mxGeometry x="160" y="640" width="80" height="160" as="geometry" />
        </mxCell>
        <mxCell id="4" value="/device" style="swimlane;whiteSpace=wrap;fontSize=14;" parent="1" vertex="1">
          <mxGeometry x="160" y="240" width="80" height="240" as="geometry" />
        </mxCell>
        <mxCell id="xLXLxWbwwWDMzjeiRdD_-47" value="POST &#39;/login&#39;" style="swimlane;whiteSpace=wrap;fontSize=14;" vertex="1" parent="1">
          <mxGeometry x="240" y="100" width="280" height="60" as="geometry" />
        </mxCell>
        <mxCell id="xLXLxWbwwWDMzjeiRdD_-48" value="GET &#39;/auth&#39;" style="swimlane;whiteSpace=wrap;fontSize=14;" vertex="1" parent="1">
          <mxGeometry x="240" y="160" width="280" height="80" as="geometry" />
        </mxCell>
        <mxCell id="xLXLxWbwwWDMzjeiRdD_-56" value="authMiddleware&lt;br&gt;add &lt;b&gt;user &lt;/b&gt;=&amp;nbsp;&lt;br&gt;{id, email, role, &lt;i&gt;iat, exp&lt;/i&gt;}" style="text;html=1;align=center;verticalAlign=middle;resizable=0;points=[];autosize=1;strokeColor=none;fontSize=14;" vertex="1" parent="xLXLxWbwwWDMzjeiRdD_-48">
          <mxGeometry x="40" y="20" width="160" height="60" as="geometry" />
        </mxCell>
        <mxCell id="xLXLxWbwwWDMzjeiRdD_-49" value="POST &#39;/&#39;" style="swimlane;whiteSpace=wrap;fontSize=14;" vertex="1" parent="1">
          <mxGeometry x="240" y="240" width="280" height="80" as="geometry" />
        </mxCell>
        <mxCell id="xLXLxWbwwWDMzjeiRdD_-59" value="&lt;font color=&quot;#b3b3b3&quot;&gt;checkRoleMiddleware(&#39;ADMIN&#39;)&lt;/font&gt;" style="text;html=1;align=center;verticalAlign=middle;resizable=0;points=[];autosize=1;strokeColor=none;fontSize=14;" vertex="1" parent="xLXLxWbwwWDMzjeiRdD_-49">
          <mxGeometry x="15" y="40" width="210" height="20" as="geometry" />
        </mxCell>
        <mxCell id="xLXLxWbwwWDMzjeiRdD_-50" value="GET &#39;/&#39;" style="swimlane;whiteSpace=wrap;fontSize=14;" vertex="1" parent="1">
          <mxGeometry x="240" y="320" width="280" height="80" as="geometry" />
        </mxCell>
        <mxCell id="xLXLxWbwwWDMzjeiRdD_-51" value="GET &#39;/{id}&#39;" style="swimlane;whiteSpace=wrap;fontSize=14;startSize=23;fontStyle=1" vertex="1" parent="1">
          <mxGeometry x="240" y="400" width="280" height="80" as="geometry" />
        </mxCell>
        <mxCell id="xLXLxWbwwWDMzjeiRdD_-52" value="POST &#39;/&#39;" style="swimlane;whiteSpace=wrap;fontSize=14;" vertex="1" parent="1">
          <mxGeometry x="240" y="480" width="280" height="80" as="geometry" />
        </mxCell>
        <mxCell id="xLXLxWbwwWDMzjeiRdD_-57" value="checkRoleMiddleware(&#39;ADMIN&#39;)&lt;br&gt;return 403 if token.role != ADMIN" style="text;html=1;align=center;verticalAlign=middle;resizable=0;points=[];autosize=1;strokeColor=none;fontSize=14;" vertex="1" parent="xLXLxWbwwWDMzjeiRdD_-52">
          <mxGeometry x="10" y="30" width="220" height="40" as="geometry" />
        </mxCell>
        <mxCell id="xLXLxWbwwWDMzjeiRdD_-53" value="GET &#39;/&#39;" style="swimlane;whiteSpace=wrap;fontSize=14;startSize=23;fontStyle=1" vertex="1" parent="1">
          <mxGeometry x="240" y="560" width="280" height="80" as="geometry" />
        </mxCell>
        <mxCell id="xLXLxWbwwWDMzjeiRdD_-54" value="POST &#39;/&#39;" style="swimlane;whiteSpace=wrap;fontSize=14;" vertex="1" parent="1">
          <mxGeometry x="240" y="640" width="280" height="80" as="geometry" />
        </mxCell>
        <mxCell id="xLXLxWbwwWDMzjeiRdD_-58" value="&lt;font color=&quot;#b3b3b3&quot;&gt;checkRoleMiddleware(&#39;ADMIN&#39;)&lt;/font&gt;" style="text;html=1;align=center;verticalAlign=middle;resizable=0;points=[];autosize=1;strokeColor=none;fontSize=14;" vertex="1" parent="xLXLxWbwwWDMzjeiRdD_-54">
          <mxGeometry x="15" y="40" width="210" height="20" as="geometry" />
        </mxCell>
        <mxCell id="xLXLxWbwwWDMzjeiRdD_-55" value="GET &#39;/&#39;" style="swimlane;whiteSpace=wrap;fontSize=14;startSize=23;fontStyle=1" vertex="1" parent="1">
          <mxGeometry x="240" y="720" width="280" height="80" as="geometry" />
        </mxCell>
        <mxCell id="xLXLxWbwwWDMzjeiRdD_-60" value="userController.registration(req, res, next)" style="swimlane;whiteSpace=wrap;fontSize=14;" vertex="1" parent="1">
          <mxGeometry x="520" y="40" width="560" height="70" as="geometry" />
        </mxCell>
        <mxCell id="xLXLxWbwwWDMzjeiRdD_-75" value="&lt;font style=&quot;font-size: 9px;&quot;&gt;User.create({ email, password: hashPassword, role })&lt;br style=&quot;font-size: 9px;&quot;&gt;&lt;/font&gt;&lt;div style=&quot;font-size: 9px;&quot;&gt;&lt;span style=&quot;font-size: 9px;&quot;&gt;&lt;font style=&quot;font-size: 9px;&quot;&gt;Basket.create({ userId: user.id })&lt;/font&gt;&lt;/span&gt;&lt;/div&gt;&lt;div style=&quot;font-size: 9px;&quot;&gt;&lt;font style=&quot;font-size: 9px;&quot;&gt;generateJwt(user.id, user.email, user.role)&lt;/font&gt;&lt;br style=&quot;font-size: 9px;&quot;&gt;&lt;/div&gt;" style="text;html=1;align=left;verticalAlign=middle;resizable=0;points=[];autosize=1;strokeColor=none;fontSize=9;" vertex="1" parent="xLXLxWbwwWDMzjeiRdD_-60">
          <mxGeometry x="170" y="23" width="230" height="40" as="geometry" />
        </mxCell>
        <mxCell id="xLXLxWbwwWDMzjeiRdD_-76" value="res.json({ token })" style="text;html=1;align=left;verticalAlign=middle;resizable=0;points=[];autosize=1;strokeColor=none;fontSize=9;" vertex="1" parent="xLXLxWbwwWDMzjeiRdD_-60">
          <mxGeometry x="470" y="33" width="90" height="20" as="geometry" />
        </mxCell>
        <mxCell id="xLXLxWbwwWDMzjeiRdD_-81" value="{ email, password, role } = req.&lt;b&gt;body&lt;/b&gt;" style="text;html=1;align=left;verticalAlign=middle;resizable=0;points=[];autosize=1;strokeColor=none;fontSize=9;" vertex="1" parent="xLXLxWbwwWDMzjeiRdD_-60">
          <mxGeometry y="33" width="160" height="20" as="geometry" />
        </mxCell>
        <mxCell id="xLXLxWbwwWDMzjeiRdD_-61" value="userController.login(req, res, next)" style="swimlane;whiteSpace=wrap;fontSize=14;" vertex="1" parent="1">
          <mxGeometry x="520" y="100" width="560" height="60" as="geometry" />
        </mxCell>
        <mxCell id="xLXLxWbwwWDMzjeiRdD_-77" value="&lt;div&gt;&lt;span&gt;bcrypt.compareSync(password, user.password)&lt;/span&gt;&lt;/div&gt;&lt;div&gt;&lt;span&gt;generateJwt(user.id, user.email, user.role)&lt;br&gt;&lt;/span&gt;&lt;/div&gt;" style="text;html=1;align=left;verticalAlign=middle;resizable=0;points=[];autosize=1;strokeColor=none;fontSize=9;" vertex="1" parent="xLXLxWbwwWDMzjeiRdD_-61">
          <mxGeometry x="170" y="27" width="210" height="30" as="geometry" />
        </mxCell>
        <mxCell id="xLXLxWbwwWDMzjeiRdD_-78" value="res.json({ token })" style="text;html=1;align=left;verticalAlign=middle;resizable=0;points=[];autosize=1;strokeColor=none;fontSize=9;" vertex="1" parent="xLXLxWbwwWDMzjeiRdD_-61">
          <mxGeometry x="470" y="32" width="90" height="20" as="geometry" />
        </mxCell>
        <mxCell id="xLXLxWbwwWDMzjeiRdD_-82" value="{ email, password } = req.&lt;b&gt;body&lt;/b&gt;" style="text;html=1;align=left;verticalAlign=middle;resizable=0;points=[];autosize=1;strokeColor=none;fontSize=9;" vertex="1" parent="xLXLxWbwwWDMzjeiRdD_-61">
          <mxGeometry y="32" width="140" height="20" as="geometry" />
        </mxCell>
        <mxCell id="xLXLxWbwwWDMzjeiRdD_-63" value="deviceController.create(req, res, next)" style="swimlane;whiteSpace=wrap;fontSize=14;" vertex="1" parent="1">
          <mxGeometry x="520" y="240" width="560" height="80" as="geometry" />
        </mxCell>
        <mxCell id="xLXLxWbwwWDMzjeiRdD_-83" value="{ name, price, brandId, typeId, info } &lt;br&gt;= req.&lt;b&gt;body&lt;/b&gt;" style="text;html=1;align=left;verticalAlign=middle;resizable=0;points=[];autosize=1;strokeColor=none;fontSize=9;" vertex="1" parent="xLXLxWbwwWDMzjeiRdD_-63">
          <mxGeometry y="35" width="160" height="30" as="geometry" />
        </mxCell>
        <mxCell id="xLXLxWbwwWDMzjeiRdD_-84" value="Device.create({ name, price, brandId, typeId, img: fileName })&lt;br&gt;DeviceInfo.create({title, description, deviceId})" style="text;html=1;align=left;verticalAlign=middle;resizable=0;points=[];autosize=1;strokeColor=none;fontSize=9;" vertex="1" parent="xLXLxWbwwWDMzjeiRdD_-63">
          <mxGeometry x="170" y="35" width="260" height="30" as="geometry" />
        </mxCell>
        <mxCell id="xLXLxWbwwWDMzjeiRdD_-85" value="res.json(device)" style="text;html=1;align=left;verticalAlign=middle;resizable=0;points=[];autosize=1;strokeColor=none;fontSize=9;" vertex="1" parent="xLXLxWbwwWDMzjeiRdD_-63">
          <mxGeometry x="470" y="40" width="80" height="20" as="geometry" />
        </mxCell>
        <mxCell id="xLXLxWbwwWDMzjeiRdD_-65" value="deviceController.getAll(req, res)" style="swimlane;whiteSpace=wrap;fontSize=14;" vertex="1" parent="1">
          <mxGeometry x="520" y="320" width="560" height="80" as="geometry" />
        </mxCell>
        <mxCell id="xLXLxWbwwWDMzjeiRdD_-86" value="{ brandId, typeId, limit, page } &lt;br&gt;= req.&lt;b&gt;query&lt;/b&gt;" style="text;html=1;align=left;verticalAlign=middle;resizable=0;points=[];autosize=1;strokeColor=none;fontSize=9;" vertex="1" parent="xLXLxWbwwWDMzjeiRdD_-65">
          <mxGeometry y="35" width="130" height="30" as="geometry" />
        </mxCell>
        <mxCell id="xLXLxWbwwWDMzjeiRdD_-87" value="Device.findAndCountAll({ where: { brandId, typeId }, limit, offset })&lt;br&gt;&lt;i&gt;(pagination)&lt;/i&gt;" style="text;html=1;align=left;verticalAlign=middle;resizable=0;points=[];autosize=1;strokeColor=none;fontSize=9;" vertex="1" parent="xLXLxWbwwWDMzjeiRdD_-65">
          <mxGeometry x="170" y="35" width="280" height="30" as="geometry" />
        </mxCell>
        <mxCell id="xLXLxWbwwWDMzjeiRdD_-88" value="res.json(devices)" style="text;html=1;align=left;verticalAlign=middle;resizable=0;points=[];autosize=1;strokeColor=none;fontSize=9;" vertex="1" parent="xLXLxWbwwWDMzjeiRdD_-65">
          <mxGeometry x="470" y="40" width="80" height="20" as="geometry" />
        </mxCell>
        <mxCell id="xLXLxWbwwWDMzjeiRdD_-66" value="deviceController.getOne(req, res)" style="swimlane;whiteSpace=wrap;fontSize=14;startSize=23;fontStyle=1" vertex="1" parent="1">
          <mxGeometry x="520" y="400" width="560" height="80" as="geometry" />
        </mxCell>
        <mxCell id="xLXLxWbwwWDMzjeiRdD_-89" value="{id} = req.&lt;b&gt;params&lt;/b&gt;" style="text;html=1;align=left;verticalAlign=middle;resizable=0;points=[];autosize=1;strokeColor=none;fontSize=9;" vertex="1" parent="xLXLxWbwwWDMzjeiRdD_-66">
          <mxGeometry y="40" width="90" height="20" as="geometry" />
        </mxCell>
        <mxCell id="xLXLxWbwwWDMzjeiRdD_-90" value="&lt;div&gt;Device.findOne({ where: {id},&lt;/div&gt;&lt;div&gt;&amp;nbsp; &amp;nbsp; &amp;nbsp; include: [{&lt;/div&gt;&lt;div&gt;&amp;nbsp; &amp;nbsp; &amp;nbsp; &amp;nbsp; model: DeviceInfo,&lt;/div&gt;&lt;div&gt;&amp;nbsp; &amp;nbsp; &amp;nbsp; &amp;nbsp; as: &#39;info&#39;&lt;/div&gt;&lt;div&gt;&amp;nbsp; &amp;nbsp; &amp;nbsp; }]&lt;/div&gt;" style="text;html=1;align=left;verticalAlign=middle;resizable=0;points=[];autosize=1;strokeColor=none;fontSize=9;" vertex="1" parent="xLXLxWbwwWDMzjeiRdD_-66">
          <mxGeometry x="170" y="20" width="130" height="60" as="geometry" />
        </mxCell>
        <mxCell id="xLXLxWbwwWDMzjeiRdD_-91" value="res.json(device)" style="text;html=1;align=left;verticalAlign=middle;resizable=0;points=[];autosize=1;strokeColor=none;fontSize=9;" vertex="1" parent="xLXLxWbwwWDMzjeiRdD_-66">
          <mxGeometry x="470" y="40" width="80" height="20" as="geometry" />
        </mxCell>
        <mxCell id="xLXLxWbwwWDMzjeiRdD_-67" value="typeController.getAll(req, res)" style="swimlane;whiteSpace=wrap;fontSize=14;startSize=23;fontStyle=1" vertex="1" parent="1">
          <mxGeometry x="520" y="560" width="560" height="80" as="geometry" />
        </mxCell>
        <mxCell id="xLXLxWbwwWDMzjeiRdD_-95" value="Type.findAll()" style="text;html=1;align=left;verticalAlign=middle;resizable=0;points=[];autosize=1;strokeColor=none;fontSize=9;" vertex="1" parent="xLXLxWbwwWDMzjeiRdD_-67">
          <mxGeometry x="170" y="40" width="70" height="20" as="geometry" />
        </mxCell>
        <mxCell id="xLXLxWbwwWDMzjeiRdD_-96" value="res.json(types)" style="text;html=1;align=left;verticalAlign=middle;resizable=0;points=[];autosize=1;strokeColor=none;fontSize=9;" vertex="1" parent="xLXLxWbwwWDMzjeiRdD_-67">
          <mxGeometry x="470" y="40" width="70" height="20" as="geometry" />
        </mxCell>
        <mxCell id="xLXLxWbwwWDMzjeiRdD_-68" value="brandController.create(req, res)" style="swimlane;whiteSpace=wrap;fontSize=14;" vertex="1" parent="1">
          <mxGeometry x="520" y="640" width="560" height="80" as="geometry" />
        </mxCell>
        <mxCell id="xLXLxWbwwWDMzjeiRdD_-97" value="{name} = req.&lt;b&gt;body&lt;/b&gt;" style="text;html=1;align=left;verticalAlign=middle;resizable=0;points=[];autosize=1;strokeColor=none;fontSize=9;" vertex="1" parent="xLXLxWbwwWDMzjeiRdD_-68">
          <mxGeometry y="40" width="90" height="20" as="geometry" />
        </mxCell>
        <mxCell id="xLXLxWbwwWDMzjeiRdD_-98" value="Brand.create({name})" style="text;html=1;align=left;verticalAlign=middle;resizable=0;points=[];autosize=1;strokeColor=none;fontSize=9;" vertex="1" parent="xLXLxWbwwWDMzjeiRdD_-68">
          <mxGeometry x="170" y="40" width="100" height="20" as="geometry" />
        </mxCell>
        <mxCell id="xLXLxWbwwWDMzjeiRdD_-99" value="res.json(brand)" style="text;html=1;align=left;verticalAlign=middle;resizable=0;points=[];autosize=1;strokeColor=none;fontSize=9;" vertex="1" parent="xLXLxWbwwWDMzjeiRdD_-68">
          <mxGeometry x="470" y="40" width="80" height="20" as="geometry" />
        </mxCell>
        <mxCell id="xLXLxWbwwWDMzjeiRdD_-70" value="brandController.getAll(req, res)" style="swimlane;whiteSpace=wrap;fontSize=14;startSize=23;fontStyle=1" vertex="1" parent="1">
          <mxGeometry x="520" y="720" width="560" height="80" as="geometry" />
        </mxCell>
        <mxCell id="xLXLxWbwwWDMzjeiRdD_-100" value="Brand.findAll()" style="text;html=1;align=left;verticalAlign=middle;resizable=0;points=[];autosize=1;strokeColor=none;fontSize=9;" vertex="1" parent="xLXLxWbwwWDMzjeiRdD_-70">
          <mxGeometry x="170" y="40" width="70" height="20" as="geometry" />
        </mxCell>
        <mxCell id="xLXLxWbwwWDMzjeiRdD_-101" value="res.json(brands)" style="text;html=1;align=left;verticalAlign=middle;resizable=0;points=[];autosize=1;strokeColor=none;fontSize=9;" vertex="1" parent="xLXLxWbwwWDMzjeiRdD_-70">
          <mxGeometry x="470" y="40" width="80" height="20" as="geometry" />
        </mxCell>
        <mxCell id="xLXLxWbwwWDMzjeiRdD_-71" value="userController.check(req, res)" style="swimlane;whiteSpace=wrap;fontSize=14;" vertex="1" parent="1">
          <mxGeometry x="520" y="160" width="560" height="80" as="geometry" />
        </mxCell>
        <mxCell id="xLXLxWbwwWDMzjeiRdD_-79" value="&lt;div&gt;&lt;span&gt;generateJwt(user.id, user.email, user.role)&lt;/span&gt;&lt;br&gt;&lt;/div&gt;" style="text;html=1;align=left;verticalAlign=middle;resizable=0;points=[];autosize=1;strokeColor=none;fontSize=9;" vertex="1" parent="xLXLxWbwwWDMzjeiRdD_-71">
          <mxGeometry x="170" y="40" width="180" height="20" as="geometry" />
        </mxCell>
        <mxCell id="xLXLxWbwwWDMzjeiRdD_-80" value="res.json({ token })" style="text;html=1;align=left;verticalAlign=middle;resizable=0;points=[];autosize=1;strokeColor=none;fontSize=9;" vertex="1" parent="xLXLxWbwwWDMzjeiRdD_-71">
          <mxGeometry x="470" y="40" width="90" height="20" as="geometry" />
        </mxCell>
        <mxCell id="xLXLxWbwwWDMzjeiRdD_-73" value="typeController.create(req, res)" style="swimlane;whiteSpace=wrap;fontSize=14;" vertex="1" parent="1">
          <mxGeometry x="520" y="480" width="560" height="80" as="geometry" />
        </mxCell>
        <mxCell id="xLXLxWbwwWDMzjeiRdD_-92" value="{name} = req.&lt;b&gt;body&lt;/b&gt;" style="text;html=1;align=left;verticalAlign=middle;resizable=0;points=[];autosize=1;strokeColor=none;fontSize=9;" vertex="1" parent="xLXLxWbwwWDMzjeiRdD_-73">
          <mxGeometry y="40" width="90" height="20" as="geometry" />
        </mxCell>
        <mxCell id="xLXLxWbwwWDMzjeiRdD_-93" value="Type.create({name})" style="text;html=1;align=left;verticalAlign=middle;resizable=0;points=[];autosize=1;strokeColor=none;fontSize=9;" vertex="1" parent="xLXLxWbwwWDMzjeiRdD_-73">
          <mxGeometry x="170" y="40" width="100" height="20" as="geometry" />
        </mxCell>
        <mxCell id="xLXLxWbwwWDMzjeiRdD_-94" value="res.json(type)" style="text;html=1;align=left;verticalAlign=middle;resizable=0;points=[];autosize=1;strokeColor=none;fontSize=9;" vertex="1" parent="xLXLxWbwwWDMzjeiRdD_-73">
          <mxGeometry x="470" y="40" width="70" height="20" as="geometry" />
        </mxCell>
      </root>
    </mxGraphModel>
  </diagram>
</mxfile>
